# Alias OBJ Model File
# Exported from SketchUp, (c) 2000-2012 Trimble Navigation Limited
# File units = inches

mtllib GeomOBJ.mtl

g Mesh1 Location_Snapshot Model

usemtl Location_Snapshot
v -3701.38 0 -2359.96
vt 0.144156 0.867521
vn 0 1 -0
v -3767.2 0 2253.5
vt 0.144156 0.272192
v 3701.46 0 2359.92
vt 0.785714 0.272192
v 3767.12 0 -2253.55
vt 0.785714 0.867521
f 1/1/1 2/2/1 3/3/1 4/4/1

g Mesh2 Model

usemtl FrontColor
v -575.473 -310.238 -553.267
vt 575.473 553.267
vn 0 -1 -0
v 576.246 -310.238 -553.267
vt -576.246 553.267
v 576.246 -310.238 598.452
vt -576.246 -598.452
v -575.473 -310.238 598.452
vt 575.473 -598.452
f 5/5/2 6/6/2 7/7/2 8/8/2

vt -576.246 -310.238
vn 0 0 -1
vt 575.473 -310.238
v -575.473 608.043 -553.267
vt 575.473 608.043
v 0.386339 1162.11 -553.267
vt -0.386339 1162.11
v 576.246 608.043 -553.267
vt -576.246 608.043
f 6/9/3 5/10/3 9/11/3 10/12/3 11/13/3

vt -553.267 -310.238
vn -1 0 -0
vt 598.452 -310.238
v -575.473 608.043 598.452
vt 598.452 608.043
vt -553.267 608.043
f 5/14/4 8/15/4 12/16/4 9/17/4

vt -575.473 -310.238
vn 0 0 1
vt 576.246 -310.238
v 576.246 608.043 598.452
vt 576.246 608.043
v 0.386339 1162.11 598.452
vt 0.386339 1162.11
vt -575.473 608.043
f 8/18/5 7/19/5 13/20/5 14/21/5 12/22/5

vt -598.452 -310.238
vn 1 0 -0
vt 553.267 -310.238
vt 553.267 608.043
vt -598.452 608.043
f 7/23/6 6/24/6 11/25/6 13/26/6

vt 553.267 6.32859
vn 0.693337 0.720613 -0
vt 553.267 805.453
vt -598.452 805.453
vt -598.452 6.32859
f 11/27/7 10/28/7 14/29/7 13/30/7

vt 598.452 6.88539
vn -0.693337 0.720613 -0
vt 598.452 806.009
vt -553.267 806.009
vt -553.267 6.88539
f 12/31/8 14/32/8 10/33/8 9/34/8
