# Blender v2.93.4 OBJ File: ''
# www.blender.org
mtllib textures.mtl
o Cube
v 0.375674 2.071923 -0.455676
v 1.000000 0.137632 -1.000000
v 0.355575 2.082427 0.446578
v 1.000000 0.137632 1.000000
v -0.508608 2.133045 -0.412912
v -1.000000 0.137632 -1.000000
v -0.526327 2.090736 0.449682
v -1.000000 0.137632 1.000000
v 0.396327 2.590818 -0.445882
v 0.376228 2.601322 0.456372
v -0.487955 2.651941 -0.403118
v -0.505674 2.609631 0.459477
vt 0.625000 0.500000
vt 0.625000 0.250000
vt 0.625000 0.250000
vt 0.625000 0.500000
vt 0.375000 0.750000
vt 0.625000 0.750000
vt 0.625000 1.000000
vt 0.375000 1.000000
vt 0.375000 0.000000
vt 0.625000 0.000000
vt 0.375000 0.250000
vt 0.125000 0.500000
vt 0.375000 0.500000
vt 0.125000 0.750000
vt 0.875000 0.500000
vt 0.875000 0.750000
vt 0.625000 0.750000
vt 0.625000 1.000000
vt 0.625000 0.000000
vn -0.0469 0.0207 -0.9987
vn 0.0018 0.2725 0.9621
vn -0.9714 0.2374 -0.0025
vn 0.0000 -1.0000 0.0000
vn 0.9504 0.3109 0.0055
vn -0.0084 0.2764 -0.9610
vn 0.0398 0.9990 0.0189
vn 0.0033 -0.0190 0.9998
vn -0.9990 0.0401 -0.0186
vn 0.9989 -0.0402 0.0227
usemtl Material
s off
f 1/1/1 5/2/1 11/3/1 9/4/1
f 4/5/2 3/6/2 7/7/2 8/8/2
f 8/9/3 7/10/3 5/2/3 6/11/3
f 6/12/4 2/13/4 4/5/4 8/14/4
f 2/13/5 1/1/5 3/6/5 4/5/5
f 6/11/6 5/2/6 1/1/6 2/13/6
f 9/4/7 11/15/7 12/16/7 10/17/7
f 7/7/8 3/6/8 10/17/8 12/18/8
f 5/2/9 7/10/9 12/19/9 11/3/9
f 3/6/10 1/1/10 9/4/10 10/17/10
